<?xml version="1.0" encoding="UTF-8"?>
<svg version="1.1" xmlns="http://www.w3.org/2000/svg" width="38" height="38">
<path d="M0 0 C4.50665768 2.13473258 7.1741532 4.91822129 10 9 C11.79973286 14.39919857 11.70112627 19.93557265 9.875 25.3125 C6.99644284 29.43843192 3.86637047 32.37787651 -1 34 C-6.96889281 34.53422104 -11.93593698 34.53306722 -17 31 C-21.37996627 26.53671916 -23.15758032 23.43353011 -23.25 17.1875 C-23.27578125 16.14980469 -23.3015625 15.11210937 -23.328125 14.04296875 C-22.73689116 8.55997874 -19.44881983 4.60502297 -15.29296875 1.17578125 C-10.48987333 -1.2871348 -5.20908833 -0.7853909 0 0 Z " fill="#484137" transform="translate(25,2)"/>
<path d="M0 0 C2.82329299 0.51543671 4.51378686 1.07077211 7 2.5625 C9.22190885 6.26568142 9.69189503 9.77172719 9.5 14.0625 C8.2478671 17.2623952 6.92991714 18.68316135 4.375 20.9375 C0.40985303 22.48907925 -3.46124446 22.51454767 -7.5 21.0625 C-9.51875629 18.01555728 -9.77841387 15.68188034 -9.5 12.0625 C-9.17 11.0725 -8.84 10.0825 -8.5 9.0625 C-8.5 7.7425 -8.5 6.4225 -8.5 5.0625 C-6.31943859 0.79618419 -4.66339294 -0.33803837 0 0 Z " fill="#273516" transform="translate(20.5,7.9375)"/>
<path d="M0 0 C4.50665768 2.13473258 7.1741532 4.91822129 10 9 C11.79973286 14.39919857 11.70112627 19.93557265 9.875 25.3125 C6.99644284 29.43843192 3.86637047 32.37787651 -1 34 C-6.96889281 34.53422104 -11.93593698 34.53306722 -17 31 C-21.37996627 26.53671916 -23.15758032 23.43353011 -23.25 17.1875 C-23.27578125 16.14980469 -23.3015625 15.11210937 -23.328125 14.04296875 C-22.73689116 8.55997874 -19.44881983 4.60502297 -15.29296875 1.17578125 C-10.48987333 -1.2871348 -5.20908833 -0.7853909 0 0 Z M-11 2 C-11.33 2.99 -11.66 3.98 -12 5 C-13.8125 6 -13.8125 6 -16 7 C-18.19457311 8.15875035 -18.19457311 8.15875035 -20 10 C-20.52160373 12.60030652 -20.52160373 12.60030652 -20.3125 15.4375 C-20.28800781 16.38496094 -20.26351563 17.33242188 -20.23828125 18.30859375 C-20.03038399 20.65681038 -19.65645306 22.74244192 -19 25 C-18.34 25 -17.68 25 -17 25 C-16.690625 25.8971875 -16.690625 25.8971875 -16.375 26.8125 C-14.3647694 30.01059414 -12.5607273 30.76993057 -9 32 C-3.86954824 32.41043614 -0.08823872 31.49575184 3.9375 28.25 C7.215956 25.03239701 8.97153592 22.59497521 9.0234375 17.86328125 C8.70549035 12.80122787 7.83174226 9.59951546 4 6 C3.34 6 2.68 6 2 6 C2 5.34 2 4.68 2 4 C0.68 4 -0.64 4 -2 4 C-2 3.34 -2 2.68 -2 2 C-4.97 2 -7.94 2 -11 2 Z " fill="#030301" transform="translate(25,2)"/>
<path d="M0 0 C0.99 0.33 1.98 0.66 3 1 C3.20086443 4.71599191 3.1519437 5.77208445 1 9 C2.65 9.33 4.3 9.66 6 10 C7.10844919 13.32534757 6.84454356 15.62182575 6 19 C4.02 19 2.04 19 0 19 C0 18.34 0 17.68 0 17 C-1.65 16.67 -3.3 16.34 -5 16 C-4.835 14.9275 -4.67 13.855 -4.5 12.75 C-3.91189085 8.96971248 -3.91189085 8.96971248 -4 5 C-2 2.25 -2 2.25 0 0 Z " fill="#99C7C3" transform="translate(16,8)"/>
<path d="M0 0 C2.61106596 0.35284675 4.55190182 0.69593338 6.75 2.1875 C8.49015681 4.71072737 8.73744897 6.98066312 9 10 C8 11 8 11 5.4375 11.0625 C4.633125 11.041875 3.82875 11.02125 3 11 C2.67 10.34 2.34 9.68 2 9 C0.35636866 8.27840576 -1.31050386 7.60648579 -3 7 C-2.01 4.69 -1.02 2.38 0 0 Z " fill="#678061" transform="translate(19,10)"/>
<path d="M0 0 C0.66 0.33 1.32 0.66 2 1 C1.48301858 3.32641638 0.85766526 5.31629943 -0.125 7.5 C-1.07733681 10.22096232 -0.98315966 11.34546892 0 14 C-1.32 14.33 -2.64 14.66 -4 15 C-3.67 12.36 -3.34 9.72 -3 7 C-6.12606964 8.60480784 -6.12606964 8.60480784 -6.51171875 10.9453125 C-6.59873047 12.02425781 -6.59873047 12.02425781 -6.6875 13.125 C-6.790625 14.40375 -6.89375 15.6825 -7 17 C-7.33 17 -7.66 17 -8 17 C-8.48389698 13.22291525 -8.70094307 9.75726104 -8 6 C-5.69032513 3.32057455 -3.11215514 1.64638565 0 0 Z " fill="#51553F" transform="translate(13,6)"/>
<path d="M0 0 C0.66 0 1.32 0 2 0 C2 0.66 2 1.32 2 2 C2.66 2 3.32 2 4 2 C4.33 1.34 4.66 0.68 5 0 C6.33332095 2.6666419 5.67102033 4.16680303 5 7 C3.02 7 1.04 7 -1 7 C-1 6.34 -1 5.68 -1 5 C-2.65 4.67 -4.3 4.34 -6 4 C-6 3.01 -6 2.02 -6 1 C-4.7934375 1.0309375 -4.7934375 1.0309375 -3.5625 1.0625 C-1.06645115 1.29633621 -1.06645115 1.29633621 0 0 Z " fill="#69AECD" transform="translate(17,20)"/>
<path d="M0 0 C1.65 0 3.3 0 5 0 C5 0.66 5 1.32 5 2 C6.98 2 8.96 2 11 2 C11.33 1.34 11.66 0.68 12 0 C12 0.66 12 1.32 12 2 C13.65 1.34 15.3 0.68 17 0 C16.0625 1.9375 16.0625 1.9375 14 4 C9.62868612 5.28023065 6.14333172 5.48999931 1.9375 3.6875 C1.298125 3.130625 0.65875 2.57375 0 2 C0 1.34 0 0.68 0 0 Z " fill="#29361E" transform="translate(11,25)"/>
<path d="M0 0 C0.99 0.33 1.98 0.66 3 1 C3.1875 3.375 3.1875 3.375 3 6 C2.01 6.66 1.02 7.32 0 8 C0 6.68 0 5.36 0 4 C-0.99 4.33 -1.98 4.66 -3 5 C-1.125 1.125 -1.125 1.125 0 0 Z " fill="#BAE1F0" transform="translate(16,8)"/>
<path d="M0 0 C0.33 0.66 0.66 1.32 1 2 C2.65 1.34 4.3 0.68 6 0 C4.9375 1.9375 4.9375 1.9375 3 4 C-0.6875 4.75 -0.6875 4.75 -4 5 C-3.67 4.01 -3.34 3.02 -3 2 C-2.01 2 -1.02 2 0 2 C0 1.34 0 0.68 0 0 Z " fill="#1D34A0" transform="translate(22,25)"/>
<path d="M0 0 C3.3 0 6.6 0 10 0 C10 0.99 10 1.98 10 3 C8.02 3 6.04 3 4 3 C4 2.34 4 1.68 4 1 C2.68 0.67 1.36 0.34 0 0 Z " fill="#528BD9" transform="translate(12,24)"/>
<path d="M0 0 C0.33 0.99 0.66 1.98 1 3 C-0.98 3.66 -2.96 4.32 -5 5 C-4.67 3.68 -4.34 2.36 -4 1 C-2.68 0.67 -1.36 0.34 0 0 Z " fill="#3F4F2A" transform="translate(27,20)"/>
<path d="M0 0 C2.475 0.495 2.475 0.495 5 1 C5 1.99 5 2.98 5 4 C3.68 4 2.36 4 1 4 C0.67 2.68 0.34 1.36 0 0 Z " fill="#83995F" transform="translate(19,10)"/>
</svg>
