<svg xmlns="http://www.w3.org/2000/svg" viewBox="0 0 260 260" role="img" aria-labelledby="title">
  <title id="title">MC Old School logo</title>
  <defs>
    <radialGradient id="bg" cx="50%" cy="42%" r="60%">
      <stop stop-color="#493323"/>
      <stop offset="1" stop-color="#130d0a"/>
    </radialGradient>
    <linearGradient id="stone" x1="0" x2="1" y1="0" y2="1">
      <stop stop-color="#e9eef7"/>
      <stop offset=".48" stop-color="#9ea7b6"/>
      <stop offset="1" stop-color="#4c5362"/>
    </linearGradient>
    <linearGradient id="ribbon" x1="0" x2="1">
      <stop stop-color="#821807"/>
      <stop offset=".5" stop-color="#d63b19"/>
      <stop offset="1" stop-color="#741404"/>
    </linearGradient>
  </defs>
  <rect width="260" height="260" rx="18" fill="url(#bg)"/>
  <path fill="#20150f" opacity=".8" d="M34 34h192v18H34zm0 44h192v12H34zm0 88h192v12H34zm0 42h192v18H34z"/>
  <g stroke="#17120e" stroke-width="10" stroke-linejoin="round">
    <path fill="url(#stone)" d="M55 55h64l16 18v103H60L45 162V72z"/>
    <path fill="url(#stone)" d="M140 55h64l16 18v103h-75l-15-14V72z"/>
  </g>
  <text x="87" y="137" text-anchor="middle" font-family="Georgia,serif" font-size="72" font-weight="900" fill="#050505">M</text>
  <text x="172" y="137" text-anchor="middle" font-family="Georgia,serif" font-size="72" font-weight="900" fill="#050505">C</text>
  <path d="M38 160c45 11 130 11 184 0v44c-55 18-142 18-184 0z" fill="url(#ribbon)" stroke="#3e0b04" stroke-width="7" stroke-linejoin="round"/>
  <text x="130" y="193" text-anchor="middle" font-family="Georgia,serif" font-size="29" font-weight="900" fill="#ffe383">OLD SCHOOL</text>
</svg>
