<svg xmlns="http://www.w3.org/2000/svg" viewBox="0 0 1600 1000" role="img" aria-labelledby="title desc">
  <title id="title">Project RuneCraft complete pixel map</title>
  <desc id="desc">A no-label pixel-art fantasy world map for the Project RuneCraft site.</desc>
  <defs>
    <linearGradient id="ocean" x1="0" x2="1" y1="0" y2="1">
      <stop stop-color="#4d7194"/>
      <stop offset=".45" stop-color="#526b8c"/>
      <stop offset="1" stop-color="#3e5f80"/>
    </linearGradient>
    <pattern id="water-dots" width="24" height="24" patternUnits="userSpaceOnUse">
      <rect width="4" height="4" x="3" y="4" fill="#9fb4c4" opacity=".28"/>
      <rect width="3" height="3" x="16" y="15" fill="#274c6c" opacity=".3"/>
    </pattern>
    <filter id="tiny-shadow" x="-8%" y="-8%" width="116%" height="116%">
      <feDropShadow dx="0" dy="6" stdDeviation="0" flood-color="#1b2c2f" flood-opacity=".34"/>
    </filter>
  </defs>
  <rect width="1600" height="1000" fill="url(#ocean)"/>
  <rect width="1600" height="1000" fill="url(#water-dots)"/>
  <g shape-rendering="crispEdges" filter="url(#tiny-shadow)">
    <path fill="#4c6f33" d="M80 250h60v-30h160v30h120v40h80v110h-40v90h-80v60h-120v-30H120v-70H70V330h10z"/>
    <path fill="#273d2e" d="M155 280h130v45h95v70h-40v55H210v-30H120v-70h35z"/>
    <path fill="#d6bf67" d="M350 360h120v40h40v70h-50v60H330v-40h-45v-70h65z"/>
    <path fill="#9a6a34" d="M85 555h150v35h115v105h-40v75H155v-45H55v-85h30z"/>
    <path fill="#d8d8d0" d="M220 600h120v45h70v95h-55v65H190v-45H125v-80h95z"/>
    <path fill="#75532c" d="M520 430h150v45h80v120h-45v95H530v-65h-70V500h60z"/>
    <path fill="#57833a" d="M650 290h150v35h120v85h65v120h-70v90H760v-40H645v-90h-55V360h60z"/>
    <path fill="#334a35" d="M690 335h135v35h85v75h45v65h-75v60H735v-40h-80v-80h35z"/>
    <path fill="#8c713a" d="M610 615h110v35h105v95h-45v70H640v-35h-80v-95h50z"/>
    <path fill="#c9c7af" d="M845 610h160v50h85v115h-50v65H870v-45h-95v-100h70z"/>
    <path fill="#57843e" d="M945 305h180v40h115v90h60v110h-65v90h-170v-45H930v-100h-55V360h70z"/>
    <path fill="#d1b14f" d="M1110 520h160v55h70v130h-60v105h-170v-50h-75V615h75z"/>
    <path fill="#7e6237" d="M990 690h90v30h75v80h-35v55h-120v-35h-70v-70h60z"/>
    <path fill="#f3efdf" d="M1075 135h135v40h90v85h55v120h-60v75h-160v-45h-95v-100h35z"/>
    <path fill="#594f43" d="M1160 270h165v50h80v95h-50v80h-160v-45h-85v-95h50z"/>
    <path fill="#27231f" d="M1225 175h155v40h75v90h55v110h-70v70h-155v-35h-90v-90h40z"/>
    <path fill="#3f7b47" d="M1320 455h145v40h75v100h-45v90h-145v-45h-85V535h55z"/>
    <path fill="#29352f" d="M1370 570h135v45h45v85h-45v55h-120v-35h-70v-95h55z"/>
    <path fill="#c8a451" d="M1260 730h140v50h75v105h-55v65h-155v-40h-80V800h75z"/>
    <path fill="#405f33" d="M410 790h110v35h85v70h-40v55H420v-40h-70v-75h60z"/>
    <path fill="#6a7e44" d="M710 835h110v35h60v75h-45v40H720v-35h-70v-65h60z"/>
    <path fill="#d5b458" d="M1000 855h90v30h70v70h-35v35h-105v-25h-55v-70h35z"/>
  </g>
  <g shape-rendering="crispEdges" opacity=".9">
    <path fill="#6f8f43" d="M275 180h70v30h55v55h-45v35h-80v-25h-50v-55h50z"/>
    <path fill="#eef3f1" d="M365 135h80v25h55v60h-35v35h-80v-20h-45v-55h25z"/>
    <path fill="#7b612f" d="M505 175h65v25h45v55h-30v35h-70v-20h-40v-55h30z"/>
    <path fill="#6d8c44" d="M760 140h70v25h60v60h-40v35h-80v-25h-45v-55h35z"/>
    <path fill="#d5c16e" d="M870 205h70v25h55v55h-35v35h-75v-20h-45v-55h30z"/>
    <path fill="#355a45" d="M1425 105h65v25h45v55h-35v35h-65v-25h-45v-50h35z"/>
    <path fill="#658f40" d="M1455 305h70v25h50v65h-35v35h-75v-25h-45v-60h35z"/>
    <path fill="#aa7b36" d="M1130 40h75v30h50v55h-35v35h-90v-25h-40V75h40z"/>
    <path fill="#2f3f35" d="M1240 70h80v25h55v60h-35v35h-90v-25h-45v-55h35z"/>
    <path fill="#f4f3e8" d="M1145 110h65v25h40v55h-35v30h-65v-25h-40v-50h35z"/>
    <path fill="#6b813e" d="M220 805h80v25h65v70h-40v35h-90v-30h-50v-65h35z"/>
    <path fill="#c9af50" d="M535 820h75v25h50v55h-35v40h-80v-25h-50v-60h40z"/>
    <path fill="#3f733e" d="M955 785h75v25h55v60h-35v40h-80v-25h-50v-60h35z"/>
    <path fill="#856031" d="M1190 885h70v25h50v50h-30v30h-75v-20h-45v-55h30z"/>
  </g>
  <g shape-rendering="crispEdges">
    <rect x="210" y="340" width="22" height="18" fill="#d1c09a"/>
    <rect x="248" y="375" width="18" height="18" fill="#c2a16d"/>
    <rect x="342" y="330" width="20" height="18" fill="#d1c09a"/>
    <rect x="715" y="415" width="24" height="20" fill="#cdb987"/>
    <rect x="790" y="455" width="18" height="18" fill="#d8c177"/>
    <rect x="1010" y="420" width="22" height="18" fill="#c8b98f"/>
    <rect x="1080" y="475" width="18" height="18" fill="#cba36c"/>
    <rect x="1168" y="575" width="20" height="20" fill="#ceb56c"/>
    <rect x="1305" y="560" width="18" height="18" fill="#c8b98f"/>
    <rect x="1395" y="620" width="22" height="18" fill="#cdb987"/>
    <rect x="1242" y="315" width="22" height="20" fill="#f2c53b"/>
    <rect x="1308" y="250" width="20" height="18" fill="#f2c53b"/>
    <rect x="1188" y="245" width="18" height="18" fill="#f2c53b"/>
    <rect x="1110" y="238" width="20" height="18" fill="#b7bdc1"/>
    <rect x="430" y="520" width="22" height="18" fill="#c9b178"/>
    <rect x="560" y="545" width="18" height="18" fill="#c9b178"/>
    <rect x="650" y="715" width="20" height="18" fill="#d2bd86"/>
    <rect x="895" y="740" width="18" height="18" fill="#d2bd86"/>
    <rect x="1275" y="815" width="20" height="18" fill="#b9b0a5"/>
  </g>
</svg>
